<svg xmlns="http://www.w3.org/2000/svg" viewBox="0 0 64 64">
  <defs>
    <linearGradient id="g" x1="0" y1="0" x2="1" y2="1">
      <stop offset="0%" stop-color="#818cf8" />
      <stop offset="100%" stop-color="#4f46e5" />
    </linearGradient>
  </defs>
  <rect width="64" height="64" rx="14" fill="url(#g)" />
  <path
    d="M17 27c0-6.6 5.4-12 12-12h6c6.6 0 12 5.4 12 12v15a6 6 0 0 1-6 6H23a6 6 0 0 1-6-6V27z"
    fill="#fff"
  />
  <path
    d="M24 27a2 2 0 0 1-2-2c0-7.7 6.3-14 14-14s14 6.3 14 14a2 2 0 1 1-4 0c0-5.5-4.5-10-10-10S26 19.5 26 25a2 2 0 0 1-2 2z"
    fill="#fff"
  />
</svg>
