<svg xmlns="http://www.w3.org/2000/svg" viewBox="0 0 512 512">
  <defs>
    <linearGradient id="bg" x1="0" y1="0" x2="1" y2="1">
      <stop offset="0%" stop-color="#818cf8" />
      <stop offset="100%" stop-color="#4f46e5" />
    </linearGradient>
  </defs>
  <rect width="512" height="512" rx="120" fill="url(#bg)" />
  <g fill="#fff">
    <path d="M140 186c0-43 35-78 78-78h76c43 0 78 35 78 78v174c0 24-20 44-44 44H184c-24 0-44-20-44-44V186z" opacity=".95"/>
    <path d="M188 196a12 12 0 0 1-12-12c0-44 36-80 80-80s80 36 80 80a12 12 0 0 1-24 0c0-31-25-56-56-56s-56 25-56 56a12 12 0 0 1-12 12z"/>
    <rect x="232" y="246" width="48" height="76" rx="20" fill="#4f46e5"/>
  </g>
</svg>
